{
	"asset":{
		"copyright":"Aryn Taylor",
		"generator":"Khronos glTF Blender I/O v3.6.27",
		"version":"2.0"
	},
	"extensionsUsed":[
		"KHR_materials_specular",
		"KHR_materials_ior"
	],
	"scene":0,
	"scenes":[
		{
			"name":"Scene",
			"nodes":[
				0,
				1,
				2,
				3,
				4,
				5
			]
		}
	],
	"nodes":[
		{
			"mesh":0,
			"name":"trooper_base"
		},
		{
			"mesh":1,
			"name":"trooper_decal1"
		},
		{
			"mesh":2,
			"name":"trooper_decal2"
		},
		{
			"mesh":3,
			"name":"trooper_helmet"
		},
		{
			"mesh":4,
			"name":"trooper_katana"
		},
		{
			"mesh":5,
			"name":"trooper_mask"
		}
	],
	"materials":[
		{
			"doubleSided":true,
			"extensions":{
				"KHR_materials_specular":{
					"specularColorFactor":[
						0,
						0,
						0
					]
				},
				"KHR_materials_ior":{
					"ior":1.4500000476837158
				}
			},
			"name":"M_TileTex",
			"pbrMetallicRoughness":{
				"baseColorTexture":{
					"index":0
				},
				"metallicFactor":0
			}
		},
		{
			"alphaCutoff":0.5,
			"alphaMode":"MASK",
			"doubleSided":true,
			"name":"M_Trooper_Decal",
			"pbrMetallicRoughness":{
				"baseColorTexture":{
					"index":1
				},
				"metallicFactor":0,
				"roughnessFactor":0.5
			}
		}
	],
	"meshes":[
		{
			"name":"Cube",
			"primitives":[
				{
					"attributes":{
						"POSITION":0,
						"NORMAL":1,
						"TEXCOORD_0":2
					},
					"indices":3,
					"material":0
				}
			]
		},
		{
			"name":"Plane",
			"primitives":[
				{
					"attributes":{
						"POSITION":4,
						"NORMAL":5,
						"TEXCOORD_0":6
					},
					"indices":7,
					"material":1
				}
			]
		},
		{
			"name":"Plane.002",
			"primitives":[
				{
					"attributes":{
						"POSITION":8,
						"NORMAL":9,
						"TEXCOORD_0":10
					},
					"indices":7,
					"material":1
				}
			]
		},
		{
			"name":"Cube.006",
			"primitives":[
				{
					"attributes":{
						"POSITION":11,
						"NORMAL":12,
						"TEXCOORD_0":13
					},
					"indices":14,
					"material":0
				}
			]
		},
		{
			"name":"Cube.001",
			"primitives":[
				{
					"attributes":{
						"POSITION":15,
						"NORMAL":16,
						"TEXCOORD_0":17
					},
					"indices":18,
					"material":0
				}
			]
		},
		{
			"name":"Cube.005",
			"primitives":[
				{
					"attributes":{
						"POSITION":19,
						"NORMAL":20,
						"TEXCOORD_0":21
					},
					"indices":22,
					"material":0
				}
			]
		}
	],
	"textures":[
		{
			"sampler":0,
			"source":0
		},
		{
			"sampler":0,
			"source":1
		}
	],
	"images":[
		{
			"bufferView":4,
			"mimeType":"image/png",
			"name":"HTR_Atlas"
		},
		{
			"bufferView":9,
			"mimeType":"image/png",
			"name":"mcg_decal_senshi"
		}
	],
	"accessors":[
		{
			"bufferView":0,
			"componentType":5126,
			"count":834,
			"max":[
				4.54152774810791,
				4.850001335144043,
				1.507073998451233
			],
			"min":[
				-4.54152774810791,
				-6,
				-1.20110023021698
			],
			"type":"VEC3"
		},
		{
			"bufferView":1,
			"componentType":5126,
			"count":834,
			"type":"VEC3"
		},
		{
			"bufferView":2,
			"componentType":5126,
			"count":834,
			"type":"VEC2"
		},
		{
			"bufferView":3,
			"componentType":5123,
			"count":3216,
			"type":"SCALAR"
		},
		{
			"bufferView":5,
			"componentType":5126,
			"count":4,
			"max":[
				0.5,
				2.98793888092041,
				0.8252444267272949
			],
			"min":[
				-0.5,
				2.5932674407958984,
				0.6815959811210632
			],
			"type":"VEC3"
		},
		{
			"bufferView":6,
			"componentType":5126,
			"count":4,
			"type":"VEC3"
		},
		{
			"bufferView":7,
			"componentType":5126,
			"count":4,
			"type":"VEC2"
		},
		{
			"bufferView":8,
			"componentType":5123,
			"count":6,
			"type":"SCALAR"
		},
		{
			"bufferView":10,
			"componentType":5126,
			"count":4,
			"max":[
				0.5,
				2.98793888092041,
				-0.6815959215164185
			],
			"min":[
				-0.5,
				2.5932674407958984,
				-0.8252444863319397
			],
			"type":"VEC3"
		},
		{
			"bufferView":11,
			"componentType":5126,
			"count":4,
			"type":"VEC3"
		},
		{
			"bufferView":12,
			"componentType":5126,
			"count":4,
			"type":"VEC2"
		},
		{
			"bufferView":13,
			"componentType":5126,
			"count":84,
			"max":[
				1.2161993980407715,
				5.413579940795898,
				1.1275558471679688
			],
			"min":[
				-1.2161993980407715,
				3.174178123474121,
				-1.184635877609253
			],
			"type":"VEC3"
		},
		{
			"bufferView":14,
			"componentType":5126,
			"count":84,
			"type":"VEC3"
		},
		{
			"bufferView":15,
			"componentType":5126,
			"count":84,
			"type":"VEC2"
		},
		{
			"bufferView":16,
			"componentType":5123,
			"count":432,
			"type":"SCALAR"
		},
		{
			"bufferView":17,
			"componentType":5126,
			"count":158,
			"max":[
				-1.1866977214813232,
				1.6085724830627441,
				2.1036150455474854
			],
			"min":[
				-1.384697675704956,
				-2.2159252166748047,
				-4.243597030639648
			],
			"type":"VEC3"
		},
		{
			"bufferView":18,
			"componentType":5126,
			"count":158,
			"type":"VEC3"
		},
		{
			"bufferView":19,
			"componentType":5126,
			"count":158,
			"type":"VEC2"
		},
		{
			"bufferView":20,
			"componentType":5123,
			"count":810,
			"type":"SCALAR"
		},
		{
			"bufferView":21,
			"componentType":5126,
			"count":145,
			"max":[
				0.44999998807907104,
				4.75,
				1.0705502033233643
			],
			"min":[
				-0.44999998807907104,
				3.472341537475586,
				0.49304741621017456
			],
			"type":"VEC3"
		},
		{
			"bufferView":22,
			"componentType":5126,
			"count":145,
			"type":"VEC3"
		},
		{
			"bufferView":23,
			"componentType":5126,
			"count":145,
			"type":"VEC2"
		},
		{
			"bufferView":24,
			"componentType":5123,
			"count":708,
			"type":"SCALAR"
		}
	],
	"bufferViews":[
		{
			"buffer":0,
			"byteLength":10008,
			"byteOffset":0,
			"target":34962
		},
		{
			"buffer":0,
			"byteLength":10008,
			"byteOffset":10008,
			"target":34962
		},
		{
			"buffer":0,
			"byteLength":6672,
			"byteOffset":20016,
			"target":34962
		},
		{
			"buffer":0,
			"byteLength":6432,
			"byteOffset":26688,
			"target":34963
		},
		{
			"buffer":0,
			"byteLength":1938,
			"byteOffset":33120
		},
		{
			"buffer":0,
			"byteLength":48,
			"byteOffset":35060,
			"target":34962
		},
		{
			"buffer":0,
			"byteLength":48,
			"byteOffset":35108,
			"target":34962
		},
		{
			"buffer":0,
			"byteLength":32,
			"byteOffset":35156,
			"target":34962
		},
		{
			"buffer":0,
			"byteLength":12,
			"byteOffset":35188,
			"target":34963
		},
		{
			"buffer":0,
			"byteLength":18685,
			"byteOffset":35200
		},
		{
			"buffer":0,
			"byteLength":48,
			"byteOffset":53888,
			"target":34962
		},
		{
			"buffer":0,
			"byteLength":48,
			"byteOffset":53936,
			"target":34962
		},
		{
			"buffer":0,
			"byteLength":32,
			"byteOffset":53984,
			"target":34962
		},
		{
			"buffer":0,
			"byteLength":1008,
			"byteOffset":54016,
			"target":34962
		},
		{
			"buffer":0,
			"byteLength":1008,
			"byteOffset":55024,
			"target":34962
		},
		{
			"buffer":0,
			"byteLength":672,
			"byteOffset":56032,
			"target":34962
		},
		{
			"buffer":0,
			"byteLength":864,
			"byteOffset":56704,
			"target":34963
		},
		{
			"buffer":0,
			"byteLength":1896,
			"byteOffset":57568,
			"target":34962
		},
		{
			"buffer":0,
			"byteLength":1896,
			"byteOffset":59464,
			"target":34962
		},
		{
			"buffer":0,
			"byteLength":1264,
			"byteOffset":61360,
			"target":34962
		},
		{
			"buffer":0,
			"byteLength":1620,
			"byteOffset":62624,
			"target":34963
		},
		{
			"buffer":0,
			"byteLength":1740,
			"byteOffset":64244,
			"target":34962
		},
		{
			"buffer":0,
			"byteLength":1740,
			"byteOffset":65984,
			"target":34962
		},
		{
			"buffer":0,
			"byteLength":1160,
			"byteOffset":67724,
			"target":34962
		},
		{
			"buffer":0,
			"byteLength":1416,
			"byteOffset":68884,
			"target":34963
		}
	],
	"samplers":[
		{
			"magFilter":9729,
			"minFilter":9987
		}
	],
	"buffers":[
		{
			"byteLength":70300,
			"uri":"data:application/octet-stream;base64,"
		}
	]
}
